<mxfile host="65bd71144e">
    <diagram id="WYMxiPcn4xNdJunLfXMA" name="Page-1">
        <mxGraphModel dx="844" dy="670" grid="1" gridSize="10" guides="1" tooltips="1" connect="1" arrows="1" fold="1" page="1" pageScale="1" pageWidth="850" pageHeight="1100" math="0" shadow="0">
            <root>
                <mxCell id="0"/>
                <mxCell id="1" parent="0"/>
                <mxCell id="o6OQJWDgkz0aS0aeavU3-2" value="" style="whiteSpace=wrap;html=1;aspect=fixed;align=right;" parent="1" vertex="1">
                    <mxGeometry x="130" y="90" width="550" height="550" as="geometry"/>
                </mxCell>
                <mxCell id="o6OQJWDgkz0aS0aeavU3-3" style="edgeStyle=orthogonalEdgeStyle;rounded=0;orthogonalLoop=1;jettySize=auto;html=1;exitX=0;exitY=0.3333333333333333;exitDx=0;exitDy=0;exitPerimeter=0;entryX=1;entryY=0.5;entryDx=0;entryDy=0;" parent="1" source="17TO2Ito0jYSVOvdsQGa-1" target="o6OQJWDgkz0aS0aeavU3-1" edge="1">
                    <mxGeometry relative="1" as="geometry"/>
                </mxCell>
                <mxCell id="17TO2Ito0jYSVOvdsQGa-1" value="Amazon Website&lt;br&gt;" style="shape=umlActor;verticalLabelPosition=bottom;verticalAlign=top;html=1;outlineConnect=0;align=center;" parent="1" vertex="1">
                    <mxGeometry x="750" y="80" width="40" height="80" as="geometry"/>
                </mxCell>
                <mxCell id="o6OQJWDgkz0aS0aeavU3-10" style="edgeStyle=orthogonalEdgeStyle;rounded=0;orthogonalLoop=1;jettySize=auto;html=1;exitX=0;exitY=0.5;exitDx=0;exitDy=0;" parent="1" source="o6OQJWDgkz0aS0aeavU3-1" target="o6OQJWDgkz0aS0aeavU3-6" edge="1">
                    <mxGeometry relative="1" as="geometry"/>
                </mxCell>
                <mxCell id="o6OQJWDgkz0aS0aeavU3-1" value="Lists Goods" style="ellipse;whiteSpace=wrap;html=1;" parent="1" vertex="1">
                    <mxGeometry x="355" y="100" width="120" height="80" as="geometry"/>
                </mxCell>
                <mxCell id="o6OQJWDgkz0aS0aeavU3-15" style="edgeStyle=orthogonalEdgeStyle;rounded=0;orthogonalLoop=1;jettySize=auto;html=1;exitX=1;exitY=0.5;exitDx=0;exitDy=0;" parent="1" source="o6OQJWDgkz0aS0aeavU3-4" target="o6OQJWDgkz0aS0aeavU3-14" edge="1">
                    <mxGeometry relative="1" as="geometry"/>
                </mxCell>
                <mxCell id="o6OQJWDgkz0aS0aeavU3-4" value="Makes Order" style="ellipse;whiteSpace=wrap;html=1;" parent="1" vertex="1">
                    <mxGeometry x="350" y="320" width="120" height="80" as="geometry"/>
                </mxCell>
                <mxCell id="o6OQJWDgkz0aS0aeavU3-12" style="edgeStyle=orthogonalEdgeStyle;rounded=0;orthogonalLoop=1;jettySize=auto;html=1;exitX=1;exitY=1;exitDx=0;exitDy=0;exitPerimeter=0;" parent="1" source="o6OQJWDgkz0aS0aeavU3-6" target="o6OQJWDgkz0aS0aeavU3-4" edge="1">
                    <mxGeometry relative="1" as="geometry"/>
                </mxCell>
                <mxCell id="o6OQJWDgkz0aS0aeavU3-29" style="edgeStyle=orthogonalEdgeStyle;rounded=0;orthogonalLoop=1;jettySize=auto;html=1;exitX=1;exitY=0.3333333333333333;exitDx=0;exitDy=0;exitPerimeter=0;" parent="1" source="o6OQJWDgkz0aS0aeavU3-6" target="o6OQJWDgkz0aS0aeavU3-26" edge="1">
                    <mxGeometry relative="1" as="geometry"/>
                </mxCell>
                <mxCell id="o6OQJWDgkz0aS0aeavU3-6" value="Consumer" style="shape=umlActor;verticalLabelPosition=bottom;verticalAlign=top;html=1;outlineConnect=0;" parent="1" vertex="1">
                    <mxGeometry x="10" y="190" width="40" height="80" as="geometry"/>
                </mxCell>
                <mxCell id="o6OQJWDgkz0aS0aeavU3-21" style="edgeStyle=orthogonalEdgeStyle;rounded=0;orthogonalLoop=1;jettySize=auto;html=1;exitX=0;exitY=1;exitDx=0;exitDy=0;exitPerimeter=0;" parent="1" source="o6OQJWDgkz0aS0aeavU3-14" target="o6OQJWDgkz0aS0aeavU3-18" edge="1">
                    <mxGeometry relative="1" as="geometry"/>
                </mxCell>
                <mxCell id="o6OQJWDgkz0aS0aeavU3-14" value="Sorting System&lt;br&gt;" style="shape=umlActor;verticalLabelPosition=bottom;verticalAlign=top;html=1;outlineConnect=0;" parent="1" vertex="1">
                    <mxGeometry x="790" y="300" width="40" height="80" as="geometry"/>
                </mxCell>
                <mxCell id="o6OQJWDgkz0aS0aeavU3-23" style="edgeStyle=orthogonalEdgeStyle;rounded=0;orthogonalLoop=1;jettySize=auto;html=1;entryX=1;entryY=0.5;entryDx=0;entryDy=0;" parent="1" source="o6OQJWDgkz0aS0aeavU3-16" target="o6OQJWDgkz0aS0aeavU3-22" edge="1">
                    <mxGeometry relative="1" as="geometry"/>
                </mxCell>
                <mxCell id="o6OQJWDgkz0aS0aeavU3-16" value="Courier" style="shape=umlActor;verticalLabelPosition=bottom;verticalAlign=top;html=1;outlineConnect=0;" parent="1" vertex="1">
                    <mxGeometry x="790" y="500" width="40" height="80" as="geometry"/>
                </mxCell>
                <mxCell id="o6OQJWDgkz0aS0aeavU3-32" style="edgeStyle=orthogonalEdgeStyle;rounded=0;orthogonalLoop=1;jettySize=auto;html=1;" parent="1" source="o6OQJWDgkz0aS0aeavU3-18" target="o6OQJWDgkz0aS0aeavU3-16" edge="1">
                    <mxGeometry relative="1" as="geometry"/>
                </mxCell>
                <mxCell id="o6OQJWDgkz0aS0aeavU3-18" value="Sorts Goods" style="ellipse;whiteSpace=wrap;html=1;" parent="1" vertex="1">
                    <mxGeometry x="490" y="390" width="105" height="70" as="geometry"/>
                </mxCell>
                <mxCell id="o6OQJWDgkz0aS0aeavU3-24" style="edgeStyle=orthogonalEdgeStyle;rounded=0;orthogonalLoop=1;jettySize=auto;html=1;" parent="1" source="o6OQJWDgkz0aS0aeavU3-22" target="o6OQJWDgkz0aS0aeavU3-6" edge="1">
                    <mxGeometry relative="1" as="geometry"/>
                </mxCell>
                <mxCell id="o6OQJWDgkz0aS0aeavU3-22" value="Delivers Goods" style="ellipse;whiteSpace=wrap;html=1;" parent="1" vertex="1">
                    <mxGeometry x="355" y="470" width="120" height="80" as="geometry"/>
                </mxCell>
                <mxCell id="o6OQJWDgkz0aS0aeavU3-30" style="edgeStyle=orthogonalEdgeStyle;rounded=0;orthogonalLoop=1;jettySize=auto;html=1;" parent="1" source="o6OQJWDgkz0aS0aeavU3-26" target="o6OQJWDgkz0aS0aeavU3-27" edge="1">
                    <mxGeometry relative="1" as="geometry"/>
                </mxCell>
                <mxCell id="o6OQJWDgkz0aS0aeavU3-26" value="Pays for Goods" style="ellipse;whiteSpace=wrap;html=1;" parent="1" vertex="1">
                    <mxGeometry x="350" y="190" width="120" height="80" as="geometry"/>
                </mxCell>
                <mxCell id="o6OQJWDgkz0aS0aeavU3-27" value="Payment System" style="shape=umlActor;verticalLabelPosition=bottom;verticalAlign=top;html=1;outlineConnect=0;" parent="1" vertex="1">
                    <mxGeometry x="730" y="190" width="40" height="80" as="geometry"/>
                </mxCell>
            </root>
        </mxGraphModel>
    </diagram>
</mxfile>